<svg xmlns="http://www.w3.org/2000/svg" width="276" height="277.278" viewBox="0 0 276 277.278"><defs><style>.a{fill:#fff;}</style></defs><g transform="translate(-135.925 -111.512)"><g transform="translate(135.925 321.58)"><path class="a" d="M143.185,584.688a21.943,21.943,0,0,1-7.26-3.412l3.207-7.114a21.765,21.765,0,0,0,6.24,3.091,23.42,23.42,0,0,0,7.232,1.166,11.548,11.548,0,0,0,5.948-1.2,3.61,3.61,0,0,0,1.924-3.178,3.036,3.036,0,0,0-1.137-2.42,8.623,8.623,0,0,0-2.916-1.546q-1.779-.582-4.811-1.282a66.309,66.309,0,0,1-7.64-2.216,12.413,12.413,0,0,1-5.1-3.557,9.6,9.6,0,0,1-2.129-6.532,11.366,11.366,0,0,1,1.924-6.443,12.949,12.949,0,0,1,5.8-4.578,23.673,23.673,0,0,1,9.476-1.692,31.41,31.41,0,0,1,7.639.934,22.563,22.563,0,0,1,6.531,2.682l-2.916,7.172a22.774,22.774,0,0,0-11.313-3.207q-3.967,0-5.861,1.283a3.915,3.915,0,0,0-1.895,3.382,3.306,3.306,0,0,0,2.187,3.12,34.21,34.21,0,0,0,6.677,2.012,66.73,66.73,0,0,1,7.639,2.216,12.657,12.657,0,0,1,5.1,3.5,9.385,9.385,0,0,1,2.129,6.473,11.151,11.151,0,0,1-1.954,6.386,13.136,13.136,0,0,1-5.861,4.578A23.9,23.9,0,0,1,152.545,586,33.4,33.4,0,0,1,143.185,584.688Z" transform="translate(-135.925 -543.779)"/><path class="a" d="M222.423,583.26a20.334,20.334,0,0,1-7.989-7.553,21.712,21.712,0,0,1,0-21.635,20.341,20.341,0,0,1,7.989-7.552,25.261,25.261,0,0,1,22.889,0,20.821,20.821,0,0,1,0,36.739,25.264,25.264,0,0,1-22.889,0Zm17.991-6.969a11.934,11.934,0,0,0,4.578-4.636,14.6,14.6,0,0,0,0-13.529,11.931,11.931,0,0,0-4.578-4.636,13.665,13.665,0,0,0-13.063,0,11.926,11.926,0,0,0-4.578,4.636,14.6,14.6,0,0,0,0,13.529,11.929,11.929,0,0,0,4.578,4.636,13.665,13.665,0,0,0,13.063,0Z" transform="translate(-174.797 -543.779)"/><path class="a" d="M321.578,583.26a20.332,20.332,0,0,1-7.989-7.553,21.708,21.708,0,0,1,0-21.635,20.339,20.339,0,0,1,7.989-7.552,25.262,25.262,0,0,1,22.89,0,20.821,20.821,0,0,1,0,36.739,25.265,25.265,0,0,1-22.89,0Zm17.991-6.969a11.933,11.933,0,0,0,4.577-4.636,14.6,14.6,0,0,0,0-13.529,11.93,11.93,0,0,0-4.577-4.636,13.665,13.665,0,0,0-13.063,0,11.922,11.922,0,0,0-4.578,4.636,14.6,14.6,0,0,0,0,13.529,11.925,11.925,0,0,0,4.578,4.636,13.665,13.665,0,0,0,13.063,0Z" transform="translate(-225.766 -543.779)"/><path class="a" d="M414.873,545.22h9.447v33.124h20.469v7.7H414.873Z" transform="translate(-279.313 -544.52)"/><path class="a" d="M511.585,577.294H492.632l-3.616,8.747h-9.681l18.195-40.821h9.331l18.253,40.821H515.2Zm-2.974-7.173-6.473-15.629-6.473,15.629Z" transform="translate(-312.449 -544.52)"/><path class="a" d="M617.875,545.22v40.821h-9.448V569.3H589.883v16.737h-9.447V545.22h9.447v16.1h18.544v-16.1Z" transform="translate(-364.418 -544.52)"/></g><g transform="translate(171.409 111.512)"><path class="a" d="M398.152,234.358a25.513,25.513,0,1,0-40.092,20.933v30.094h0c0,.061,0,.121,0,.182a14.579,14.579,0,1,0,29.158,0c0-.061,0-.121,0-.182h0V255.291A25.478,25.478,0,0,0,398.152,234.358Z" transform="translate(-279.973 -161.544)"/><path class="a" d="M315.185,111.613v.1s-36.448-3.645-80.185,32.8c0,0,18.224,10.934,32.8,3.645s21.869-16.4,47.382-16.4v-.1c25.513,0,32.8,9.113,47.382,16.4s32.8-3.645,32.8-3.645C351.632,107.968,315.185,111.613,315.185,111.613Z" transform="translate(-222.337 -111.512)"/><path class="a" d="M484.875,302.279l-.087-.053s22.157-29.168,13.944-85.506c0,0-18.847,9.821-20.252,26.061S481.035,270,467.7,291.749l.086.052c-13.335,21.751-24.914,23.2-38.749,31.822S415,353.494,415,353.494C468.933,335.257,484.875,302.279,484.875,302.279Z" transform="translate(-314.863 -165.592)"/><path class="a" d="M224.626,302.279l.086-.053s-22.157-29.168-13.943-85.506c0,0,18.847,9.821,20.252,26.061S228.466,270,241.8,291.749l-.087.052c13.335,21.751,24.915,23.2,38.749,31.822S294.5,353.494,294.5,353.494C240.568,335.257,224.626,302.279,224.626,302.279Z" transform="translate(-208.943 -165.592)"/></g><g transform="translate(163.563 375.987)"><path class="a" d="M196.024,667.7a6.1,6.1,0,0,1-2.373-2.292,6.695,6.695,0,0,1,0-6.545,6.1,6.1,0,0,1,2.373-2.293,7.283,7.283,0,0,1,6.761-.009,6.121,6.121,0,0,1,2.364,2.292,6.67,6.67,0,0,1,0,6.563,6.119,6.119,0,0,1-2.364,2.292,7.288,7.288,0,0,1-6.761-.009Zm6.086-1.025a4.882,4.882,0,0,0,1.888-1.87,5.559,5.559,0,0,0,0-5.34,4.886,4.886,0,0,0-1.888-1.87,5.755,5.755,0,0,0-5.4,0,4.931,4.931,0,0,0-1.906,1.87,5.5,5.5,0,0,0,0,5.34,4.927,4.927,0,0,0,1.906,1.87,5.747,5.747,0,0,0,5.4,0Z" transform="translate(-192.796 -655.735)"/><path class="a" d="M236.651,655.957v12.587h-1.1l-8.091-10.213v10.213h-1.331V655.957h1.1l8.109,10.214V655.957Z" transform="translate(-209.932 -655.849)"/><path class="a" d="M265.114,667.393v1.151h-8.9V655.957h8.631v1.151h-7.3v4.477h6.509v1.133h-6.509v4.675Z" transform="translate(-225.394 -655.849)"/><path class="a" d="M291.575,667.71a6.049,6.049,0,0,1-2.355-2.292,6.73,6.73,0,0,1,0-6.563,6.033,6.033,0,0,1,2.364-2.292,6.918,6.918,0,0,1,3.38-.828,7.016,7.016,0,0,1,2.589.468,5.37,5.37,0,0,1,2.014,1.367l-.845.845A5.014,5.014,0,0,0,295,656.922a5.47,5.47,0,0,0-2.715.683,5,5,0,0,0-1.915,1.87,5.463,5.463,0,0,0,0,5.322,4.99,4.99,0,0,0,1.915,1.87,5.465,5.465,0,0,0,2.715.684,4.944,4.944,0,0,0,3.722-1.511l.845.846a5.448,5.448,0,0,1-2.023,1.375,6.951,6.951,0,0,1-2.6.476A6.863,6.863,0,0,1,291.575,667.71Z" transform="translate(-241.922 -655.735)"/><path class="a" d="M317.262,655.957h1.331v11.436h7.048v1.151h-8.379Z" transform="translate(-256.775 -655.849)"/><path class="a" d="M339.055,655.957h1.331v12.587h-1.331Z" transform="translate(-267.978 -655.849)"/><path class="a" d="M351.144,667.71a6.051,6.051,0,0,1-2.355-2.292,6.733,6.733,0,0,1,0-6.563,6.038,6.038,0,0,1,2.365-2.292,6.918,6.918,0,0,1,3.38-.828,7.016,7.016,0,0,1,2.589.468,5.369,5.369,0,0,1,2.014,1.367l-.845.845a5.014,5.014,0,0,0-3.722-1.492,5.47,5.47,0,0,0-2.715.683,5,5,0,0,0-1.915,1.87,5.463,5.463,0,0,0,0,5.322,4.99,4.99,0,0,0,1.915,1.87,5.465,5.465,0,0,0,2.715.684,4.944,4.944,0,0,0,3.722-1.511l.845.846a5.451,5.451,0,0,1-2.023,1.375,6.952,6.952,0,0,1-2.6.476A6.864,6.864,0,0,1,351.144,667.71Z" transform="translate(-272.542 -655.735)"/><path class="a" d="M380.733,662.628l-2.571,2.607v3.308h-1.331V655.957h1.331v7.606l7.39-7.606h1.528l-5.448,5.7,5.826,6.886h-1.582Z" transform="translate(-287.396 -655.849)"/><path class="a" d="M413.748,667.71a6.05,6.05,0,0,1-2.355-2.292,6.73,6.73,0,0,1,0-6.563,6.037,6.037,0,0,1,2.364-2.292,6.92,6.92,0,0,1,3.38-.828,7.016,7.016,0,0,1,2.589.468,5.366,5.366,0,0,1,2.014,1.367l-.845.845a5.014,5.014,0,0,0-3.722-1.492,5.471,5.471,0,0,0-2.715.683,5,5,0,0,0-1.915,1.87,5.46,5.46,0,0,0,0,5.322,4.988,4.988,0,0,0,1.915,1.87,5.467,5.467,0,0,0,2.715.684,4.944,4.944,0,0,0,3.722-1.511l.845.846a5.446,5.446,0,0,1-2.023,1.375,6.956,6.956,0,0,1-2.6.476A6.861,6.861,0,0,1,413.748,667.71Z" transform="translate(-304.722 -655.735)"/><path class="a" d="M439.435,655.957h1.331v11.436h7.048v1.151h-8.379Z" transform="translate(-319.576 -655.849)"/><path class="a" d="M470.128,667.393v1.151h-8.9V655.957h8.631v1.151h-7.3v4.477h6.509v1.133h-6.509v4.675Z" transform="translate(-330.778 -655.849)"/><path class="a" d="M491.743,665.181h-7.013l-1.51,3.363h-1.385l5.754-12.587H488.9l5.754,12.587h-1.4Zm-.485-1.078-3.021-6.761-3.021,6.761Z" transform="translate(-341.372 -655.849)"/><path class="a" d="M523.028,655.957v12.587h-1.1l-8.091-10.213v10.213h-1.331V655.957h1.1l8.109,10.214V655.957Z" transform="translate(-357.139 -655.849)"/><path class="a" d="M542.589,655.957h1.331v12.587h-1.331Z" transform="translate(-372.601 -655.849)"/><path class="a" d="M564.282,655.957v12.587h-1.1l-8.091-10.213v10.213h-1.331V655.957h1.1l8.109,10.214V655.957Z" transform="translate(-378.344 -655.849)"/><path class="a" d="M591.528,662.136h1.277v4.8a6.144,6.144,0,0,1-2.086,1.187,7.755,7.755,0,0,1-2.535.413,6.951,6.951,0,0,1-3.4-.827,6.1,6.1,0,0,1-2.373-2.292,6.667,6.667,0,0,1,0-6.563,6.1,6.1,0,0,1,2.373-2.292,6.993,6.993,0,0,1,3.416-.828,7.377,7.377,0,0,1,2.644.459,5.247,5.247,0,0,1,2.031,1.358l-.827.845a5.175,5.175,0,0,0-3.794-1.474,5.656,5.656,0,0,0-2.76.673,4.958,4.958,0,0,0-1.933,1.87,5.417,5.417,0,0,0,0,5.332,5.057,5.057,0,0,0,1.924,1.87,5.54,5.54,0,0,0,2.751.684,5.481,5.481,0,0,0,3.291-.971Z" transform="translate(-392.627 -655.735)"/></g><g transform="translate(395.469 322.325)"><path class="a" d="M670,545.312h6.67v.838h-2.824v6.725h-1V546.15H670Zm15.509,7.563-.018-5.832-3.117,4.9h-.455l-3.116-4.793v5.722h-.966v-7.563h.82l3.5,5.467,3.48-5.467h.8l.018,7.563Z" transform="translate(-670 -545.312)"/></g></g></svg>