<svg xmlns="http://www.w3.org/2000/svg" width="105.602" height="106.091" viewBox="0 0 105.602 106.091"><defs><style>.a{fill:#1c568f;}.b{fill:#024a83;}.c{fill:#43c2f4;}.d{fill:#0591c9;}.e{fill:#bbb;}</style></defs><g transform="translate(96 -185)"><g transform="translate(-96 185)"><g transform="translate(0 80.376)"><path class="a" d="M138.7,559.432a8.4,8.4,0,0,1-2.778-1.306l1.227-2.722a8.328,8.328,0,0,0,2.387,1.183,8.962,8.962,0,0,0,2.767.446,4.419,4.419,0,0,0,2.276-.457,1.381,1.381,0,0,0,.736-1.216,1.162,1.162,0,0,0-.435-.926,3.3,3.3,0,0,0-1.116-.591q-.681-.222-1.841-.491A25.369,25.369,0,0,1,139,552.5a4.75,4.75,0,0,1-1.952-1.361,3.675,3.675,0,0,1-.814-2.5,4.349,4.349,0,0,1,.736-2.465,4.956,4.956,0,0,1,2.22-1.752,9.058,9.058,0,0,1,3.626-.647,12.02,12.02,0,0,1,2.923.357,8.636,8.636,0,0,1,2.5,1.026l-1.116,2.744a8.714,8.714,0,0,0-4.329-1.227,4.06,4.06,0,0,0-2.243.491,1.5,1.5,0,0,0-.725,1.294,1.265,1.265,0,0,0,.837,1.194,13.093,13.093,0,0,0,2.555.77,25.531,25.531,0,0,1,2.923.848,4.844,4.844,0,0,1,1.952,1.339,3.591,3.591,0,0,1,.814,2.477,4.266,4.266,0,0,1-.747,2.443,5.026,5.026,0,0,1-2.242,1.752,9.145,9.145,0,0,1-3.637.647A12.781,12.781,0,0,1,138.7,559.432Z" transform="translate(-135.925 -543.779)"/><path class="a" d="M215.708,558.885a7.779,7.779,0,0,1-3.057-2.89,8.307,8.307,0,0,1,0-8.278,7.782,7.782,0,0,1,3.057-2.89,9.665,9.665,0,0,1,8.758,0,7.966,7.966,0,0,1,0,14.057,9.666,9.666,0,0,1-8.758,0Zm6.883-2.666a4.566,4.566,0,0,0,1.752-1.774,5.586,5.586,0,0,0,0-5.177,4.565,4.565,0,0,0-1.752-1.774,5.229,5.229,0,0,0-5,0,4.563,4.563,0,0,0-1.752,1.774,5.587,5.587,0,0,0,0,5.177,4.564,4.564,0,0,0,1.752,1.774,5.228,5.228,0,0,0,5,0Z" transform="translate(-197.486 -543.779)"/><path class="a" d="M314.863,558.885a7.779,7.779,0,0,1-3.057-2.89,8.306,8.306,0,0,1,0-8.278,7.782,7.782,0,0,1,3.057-2.89,9.666,9.666,0,0,1,8.758,0,7.966,7.966,0,0,1,0,14.057,9.667,9.667,0,0,1-8.758,0Zm6.884-2.666a4.565,4.565,0,0,0,1.751-1.774,5.586,5.586,0,0,0,0-5.177,4.565,4.565,0,0,0-1.751-1.774,5.229,5.229,0,0,0-5,0A4.562,4.562,0,0,0,315,549.268a5.585,5.585,0,0,0,0,5.177,4.562,4.562,0,0,0,1.752,1.774,5.228,5.228,0,0,0,5,0Z" transform="translate(-278.204 -543.779)"/><path class="a" d="M414.873,545.22h3.615v12.674h7.832v2.945H414.873Z" transform="translate(-363.006 -544.952)"/><path class="a" d="M491.675,557.492h-7.252l-1.383,3.347h-3.7L486.3,545.22h3.57l6.984,15.619h-3.793Zm-1.138-2.744-2.477-5.98-2.477,5.98Z" transform="translate(-415.482 -544.952)"/><path class="a" d="M594.761,545.22v15.619h-3.615v-6.4h-7.1v6.4h-3.615V545.22h3.615v6.158h7.1V545.22Z" transform="translate(-497.784 -544.952)"/></g><g transform="translate(13.577 0)"><path class="b" d="M366.649,218.607a9.762,9.762,0,1,0-15.34,8.009v11.515h0c0,.023,0,.046,0,.07a5.578,5.578,0,1,0,11.156,0c0-.023,0-.046,0-.07h0V226.616A9.748,9.748,0,0,0,366.649,218.607Z" transform="translate(-321.431 -190.747)"/><path class="c" d="M265.68,111.55v.039S251.735,110.195,235,124.14c0,0,6.973,4.184,12.551,1.395s8.367-6.276,18.129-6.276v-.039c9.762,0,12.551,3.487,18.129,6.276S296.36,124.1,296.36,124.1C279.626,110.156,265.68,111.55,265.68,111.55Z" transform="translate(-230.155 -111.512)"/><path class="b" d="M441.736,249.456l-.033-.02s8.478-11.16,5.335-32.716c0,0-7.211,3.758-7.749,9.971s.977,10.414-4.125,18.736l.033.02c-5.1,8.322-9.533,8.878-14.826,12.176S415,269.052,415,269.052C435.636,262.074,441.736,249.456,441.736,249.456Z" transform="translate(-376.686 -197.158)"/><path class="d" d="M214.943,249.456l.033-.02s-8.478-11.16-5.335-32.716c0,0,7.211,3.758,7.749,9.971s-.977,10.414,4.125,18.736l-.033.02c5.1,8.322,9.533,8.878,14.826,12.176s5.371,11.429,5.371,11.429C221.043,262.074,214.943,249.456,214.943,249.456Z" transform="translate(-208.943 -197.158)"/></g><g transform="translate(10.575 101.193)"><path class="e" d="M194.031,660.314a2.335,2.335,0,0,1-.908-.877,2.562,2.562,0,0,1,0-2.5,2.335,2.335,0,0,1,.908-.877,2.787,2.787,0,0,1,2.587,0,2.342,2.342,0,0,1,.9.877,2.552,2.552,0,0,1,0,2.511,2.341,2.341,0,0,1-.9.877,2.788,2.788,0,0,1-2.587,0Zm2.329-.392a1.869,1.869,0,0,0,.722-.716,2.127,2.127,0,0,0,0-2.043,1.87,1.87,0,0,0-.722-.716,2.2,2.2,0,0,0-2.067,0,1.886,1.886,0,0,0-.729.716,2.1,2.1,0,0,0,0,2.043,1.886,1.886,0,0,0,.729.716,2.2,2.2,0,0,0,2.067,0Z" transform="translate(-192.796 -655.735)"/><path class="e" d="M230.157,655.957v4.816h-.419l-3.1-3.908v3.908h-.509v-4.816h.42l3.1,3.908v-3.908Z" transform="translate(-219.934 -655.916)"/><path class="e" d="M259.618,660.333v.44h-3.405v-4.816h3.3v.44h-2.793v1.713h2.49v.433h-2.49v1.789Z" transform="translate(-244.421 -655.916)"/><path class="e" d="M289.594,660.317a2.314,2.314,0,0,1-.9-.877,2.575,2.575,0,0,1,0-2.511,2.308,2.308,0,0,1,.9-.877,2.646,2.646,0,0,1,1.293-.317,2.684,2.684,0,0,1,.991.179,2.054,2.054,0,0,1,.771.523l-.323.323a1.918,1.918,0,0,0-1.424-.571,2.093,2.093,0,0,0-1.039.261,1.911,1.911,0,0,0-.733.716,2.09,2.09,0,0,0,0,2.036,1.909,1.909,0,0,0,.733.715,2.092,2.092,0,0,0,1.039.262,1.892,1.892,0,0,0,1.424-.578l.323.324a2.083,2.083,0,0,1-.774.526,2.66,2.66,0,0,1-.994.182A2.625,2.625,0,0,1,289.594,660.317Z" transform="translate(-270.596 -655.735)"/><path class="e" d="M317.262,655.957h.509v4.376h2.7v.44h-3.206Z" transform="translate(-294.119 -655.916)"/><path class="e" d="M339.055,655.957h.509v4.816h-.509Z" transform="translate(-311.86 -655.916)"/><path class="e" d="M349.163,660.317a2.314,2.314,0,0,1-.9-.877,2.576,2.576,0,0,1,0-2.511,2.309,2.309,0,0,1,.9-.877,2.646,2.646,0,0,1,1.293-.317,2.684,2.684,0,0,1,.991.179,2.053,2.053,0,0,1,.771.523l-.323.323a1.918,1.918,0,0,0-1.424-.571,2.092,2.092,0,0,0-1.039.261,1.911,1.911,0,0,0-.733.716,2.09,2.09,0,0,0,0,2.036,1.909,1.909,0,0,0,.733.715,2.091,2.091,0,0,0,1.039.262,1.892,1.892,0,0,0,1.424-.578l.323.324a2.085,2.085,0,0,1-.774.526,2.66,2.66,0,0,1-.994.182A2.625,2.625,0,0,1,349.163,660.317Z" transform="translate(-319.089 -655.735)"/><path class="e" d="M378.324,658.51l-.984,1v1.266h-.509v-4.816h.509v2.91l2.828-2.91h.585l-2.085,2.181,2.229,2.635h-.605Z" transform="translate(-342.612 -655.916)"/><path class="e" d="M411.766,660.317a2.314,2.314,0,0,1-.9-.877,2.575,2.575,0,0,1,0-2.511,2.309,2.309,0,0,1,.9-.877,2.647,2.647,0,0,1,1.293-.317,2.684,2.684,0,0,1,.991.179,2.053,2.053,0,0,1,.771.523l-.323.323a1.918,1.918,0,0,0-1.424-.571,2.093,2.093,0,0,0-1.039.261,1.911,1.911,0,0,0-.733.716,2.089,2.089,0,0,0,0,2.036,1.908,1.908,0,0,0,.733.715,2.092,2.092,0,0,0,1.039.262,1.892,1.892,0,0,0,1.424-.578l.323.324a2.083,2.083,0,0,1-.774.526,2.661,2.661,0,0,1-.994.182A2.624,2.624,0,0,1,411.766,660.317Z" transform="translate(-370.051 -655.735)"/><path class="e" d="M439.435,655.957h.509v4.376h2.7v.44h-3.206Z" transform="translate(-393.575 -655.916)"/><path class="e" d="M464.633,660.333v.44h-3.405v-4.816h3.3v.44h-2.793v1.713h2.49v.433h-2.49v1.789Z" transform="translate(-411.315 -655.916)"/><path class="e" d="M485.627,659.486h-2.683l-.578,1.286h-.53l2.2-4.816h.5l2.2,4.816H486.2Zm-.186-.413-1.156-2.587-1.156,2.587Z" transform="translate(-428.092 -655.916)"/><path class="e" d="M516.534,655.957v4.816h-.42l-3.1-3.908v3.908h-.509v-4.816h.42l3.1,3.908v-3.908Z" transform="translate(-453.062 -655.916)"/><path class="e" d="M542.589,655.957h.509v4.816h-.509Z" transform="translate(-477.549 -655.916)"/><path class="e" d="M557.788,655.957v4.816h-.42l-3.1-3.908v3.908h-.509v-4.816h.42l3.1,3.908v-3.908Z" transform="translate(-486.645 -655.916)"/><path class="e" d="M585.367,658.184h.488v1.837a2.35,2.35,0,0,1-.8.454,2.966,2.966,0,0,1-.97.158,2.658,2.658,0,0,1-1.3-.317,2.332,2.332,0,0,1-.908-.877,2.551,2.551,0,0,1,0-2.511,2.333,2.333,0,0,1,.908-.877,2.675,2.675,0,0,1,1.307-.317,2.824,2.824,0,0,1,1.012.176,2.008,2.008,0,0,1,.777.52l-.316.323a1.98,1.98,0,0,0-1.452-.564,2.163,2.163,0,0,0-1.056.258,1.9,1.9,0,0,0-.74.716,2.073,2.073,0,0,0,0,2.04,1.935,1.935,0,0,0,.736.715,2.12,2.12,0,0,0,1.053.262,2.1,2.1,0,0,0,1.259-.371Z" transform="translate(-509.264 -655.735)"/></g><g transform="translate(99.306 80.661)"><path class="b" d="M670,545.312h2.552v.321h-1.081v2.573h-.384v-2.573H670Zm5.934,2.894-.007-2.231-1.193,1.876h-.174l-1.192-1.834v2.189H673v-2.894h.314l1.339,2.092,1.332-2.092h.307l.007,2.894Z" transform="translate(-670 -545.312)"/></g></g></g></svg>