<?xml version="1.0" encoding="utf-8"?>
<!-- Generator: Adobe Illustrator 24.3.0, SVG Export Plug-In . SVG Version: 6.00 Build 0)  -->
<svg version="1.1" id="Layer_1" xmlns="http://www.w3.org/2000/svg" xmlns:xlink="http://www.w3.org/1999/xlink" x="0px" y="0px"
	 viewBox="0 0 24 24" style="enable-background:new 0 0 24 24;color:#024A83" xml:space="preserve">
<path d="M23,6v3.6c0,0.6-0.4,1-1,1s-1-0.4-1-1V6c0-0.6-0.4-1-1-1H4C3.4,5,3,5.5,3,6v14c0,0.6,0.4,1,1,1h4c0.6,0,1,0.4,1,1
	s-0.4,1-1,1H4c-1.7,0-3-1.3-3-3V6c0-1.7,1.3-3,3-3h2V2c0-0.6,0.4-1,1-1s1,0.4,1,1v1h8V2c0-0.6,0.4-1,1-1s1,0.4,1,1v1h2
	C21.7,3,23,4.4,23,6z M11,8.8v-1c0-0.3-0.2-0.5-0.5-0.5h-1C9.2,7.3,9,7.5,9,7.8v1c0,0.3,0.2,0.5,0.5,0.5h1C10.8,9.3,11,9.1,11,8.8z
	 M15,8.8v-1c0-0.3-0.2-0.5-0.5-0.5h-1c-0.3,0-0.5,0.2-0.5,0.5v1c0,0.3,0.2,0.5,0.5,0.5h1C14.8,9.3,15,9.1,15,8.8z M19,8.8v-1
	c0-0.3-0.2-0.5-0.5-0.5h-1c-0.3,0-0.5,0.2-0.5,0.5v1c0,0.3,0.2,0.5,0.5,0.5h1C18.8,9.3,19,9.1,19,8.8z M7,12.8v-1
	c0-0.3-0.2-0.5-0.5-0.5h-1c-0.3,0-0.5,0.2-0.5,0.5v1c0,0.3,0.2,0.5,0.5,0.5h1C6.8,13.3,7,13.1,7,12.8z M11,12.8v-1
	c0-0.3-0.2-0.5-0.5-0.5h-1c-0.3,0-0.5,0.2-0.5,0.5v1c0,0.3,0.2,0.5,0.5,0.5h1C10.8,13.3,11,13.1,11,12.8z M15,12.8v-1
	c0-0.3-0.2-0.5-0.5-0.5h-1c-0.3,0-0.5,0.2-0.5,0.5v1c0,0.3,0.2,0.5,0.5,0.5h1C14.8,13.3,15,13.1,15,12.8z M7,16.8v-1
	c0-0.3-0.2-0.5-0.5-0.5h-1c-0.3,0-0.5,0.2-0.5,0.5v1c0,0.3,0.2,0.5,0.5,0.5h1C6.8,17.3,7,17.1,7,16.8z M14.4,22.7l8.3-8.3
	c0.4-0.4,0.4-1,0-1.4s-1-0.4-1.4,0l-7.6,7.6l-2.3-2.3c-0.4-0.4-1-0.4-1.4,0s-0.4,1,0,1.4l3,3c0.2,0.2,0.5,0.3,0.7,0.3
	S14.2,22.9,14.4,22.7z"/>
</svg>
