<?xml version="1.0" encoding="utf-8"?>
<!-- Generator: Adobe Illustrator 24.3.0, SVG Export Plug-In . SVG Version: 6.00 Build 0)  -->
<svg version="1.1" id="Layer_1" xmlns="http://www.w3.org/2000/svg" xmlns:xlink="http://www.w3.org/1999/xlink" x="0px" y="0px" viewBox="0 0 24 24" style="enable-background:new 0 0 24 24;color:#43C2F4" xml:space="preserve">
	<path d="M10,19.7c-0.4-0.4-0.4-1,0-1.4c0.2-0.2,0.5-0.3,0.7-0.3s0.5,0.1,0.7,0.3l2.3,2.3l7.6-7.6c0.2-0.2,0.5-0.3,0.7-0.3
	s0.5,0.1,0.7,0.3c0.4,0.4,0.4,1,0,1.4l-8.3,8.3c-0.2,0.2-0.5,0.3-0.7,0.3s-0.5-0.1-0.7-0.3L10,19.7z M10.5,23H8H4c-1.7,0-3-1.3-3-3
	V6v0c0,0,0,0,0,0C1,4.4,2.2,3.2,3.7,3C3.8,3,3.9,3,4,3h2V2c0-0.6,0.4-1,1-1s1,0.4,1,1v1h8V2c0-0.6,0.4-1,1-1s1,0.4,1,1v1h2
	c0.2,0,0.4,0,0.6,0.1c0,0,0,0,0,0c0.2,0,0.4,0.1,0.6,0.2c0,0,0,0,0,0C22.3,3.7,23,4.8,23,6v0v3.6v1.3c-0.3-0.1-0.7-0.2-1-0.2
	c-0.8,0-1.5,0.3-2.1,0.9l-6.2,6.2l-0.9-0.9c-0.6-0.6-1.3-0.9-2.1-0.9s-1.5,0.3-2.1,0.9c-1.2,1.2-1.2,3,0,4.2L10.5,23z M17,8.8
	c0,0.3,0.2,0.5,0.5,0.5h1c0.3,0,0.5-0.2,0.5-0.5v-1c0-0.3-0.2-0.5-0.5-0.5h-1c-0.3,0-0.5,0.2-0.5,0.5V8.8z M13,8.8
	c0,0.3,0.2,0.5,0.5,0.5h1c0.3,0,0.5-0.2,0.5-0.5v-1c0-0.3-0.2-0.5-0.5-0.5h-1c-0.3,0-0.5,0.2-0.5,0.5V8.8z M13,12.8
	c0,0.3,0.2,0.5,0.5,0.5h1c0.3,0,0.5-0.2,0.5-0.5v-1c0-0.3-0.2-0.5-0.5-0.5h-1c-0.3,0-0.5,0.2-0.5,0.5V12.8z M9,8.8
	c0,0.3,0.2,0.5,0.5,0.5h1c0.3,0,0.5-0.2,0.5-0.5v-1c0-0.3-0.2-0.5-0.5-0.5h-1C9.2,7.3,9,7.5,9,7.8V8.8z M9,12.8
	c0,0.3,0.2,0.5,0.5,0.5h1c0.3,0,0.5-0.2,0.5-0.5v-1c0-0.3-0.2-0.5-0.5-0.5h-1c-0.3,0-0.5,0.2-0.5,0.5V12.8z M7,15.8
	c0-0.3-0.2-0.5-0.5-0.5h-1c-0.3,0-0.5,0.2-0.5,0.5v1c0,0.3,0.2,0.5,0.5,0.5h1c0.3,0,0.5-0.2,0.5-0.5V15.8z M7,11.8
	c0-0.3-0.2-0.5-0.5-0.5h-1c-0.3,0-0.5,0.2-0.5,0.5v1c0,0.3,0.2,0.5,0.5,0.5h1c0.3,0,0.5-0.2,0.5-0.5V11.8z" />
</svg>
