<?xml version="1.0" encoding="utf-8"?>
<!-- Generator: Adobe Illustrator 24.3.0, SVG Export Plug-In . SVG Version: 6.00 Build 0)  -->
<svg version="1.1" id="Layer_1" xmlns="http://www.w3.org/2000/svg" xmlns:xlink="http://www.w3.org/1999/xlink" x="0px" y="0px"
	 viewBox="0 0 24 24" style="enable-background:new 0 0 24 24;color:#024A83" xml:space="preserve">
<path d="M19.1,23h-4.8c-0.7,0-1.2-0.5-1.2-1.2v-4c0-0.6-0.5-1.1-1.1-1.1s-1.1,0.5-1.1,1.1v4c0,0.7-0.5,1.2-1.2,1.2H4.9
	c-1,0-1.8-0.8-1.8-1.8v-7.3H2.8c0,0,0,0,0,0c-0.5,0-0.9-0.2-1.3-0.5c-0.7-0.7-0.7-1.9,0-2.6l9.2-9.2C11,1.2,11.5,1,12,1c0,0,0,0,0,0
	c0.5,0,0.9,0.2,1.3,0.5l8.8,8.8l0,0l0.4,0.4C22.8,11,23,11.5,23,12c0,1-0.8,1.8-1.8,1.8h-0.3v7.3C20.9,22.2,20.1,23,19.1,23z
	 M15.1,21h3.8v-8c0-0.7,0.5-1.2,1.2-1.2h0.6L12,3.1l-8.8,8.8h0.6c0.7,0,1.2,0.5,1.2,1.2v8h3.8v-3.2c0-1.7,1.4-3.1,3.1-3.1
	s3.1,1.4,3.1,3.1V21z M2.8,11.8C2.8,11.8,2.8,11.8,2.8,11.8L2.8,11.8C2.8,11.8,2.8,11.8,2.8,11.8z"/>
</svg>
