<?xml version="1.0" encoding="utf-8"?>
<!-- Generator: Adobe Illustrator 24.3.0, SVG Export Plug-In . SVG Version: 6.00 Build 0)  -->
<svg version="1.1" id="Layer_1" xmlns="http://www.w3.org/2000/svg" xmlns:xlink="http://www.w3.org/1999/xlink" x="0px" y="0px"
	 viewBox="0 0 24 24" style="enable-background:new 0 0 24 24;color:#024A83" xml:space="preserve">
<path d="M14.9,21.8c-0.3,1-1.1,1.8-2.1,2.1C12.6,24,12.3,24,12,24c-1.3,0-2.5-0.9-2.9-2.2c-0.2-0.5,0.1-1.1,0.7-1.2
	c0.5-0.2,1.1,0.1,1.2,0.7c0.2,0.6,0.7,0.9,1.3,0.7c0.3-0.1,0.6-0.4,0.7-0.7c0.2-0.5,0.7-0.8,1.2-0.7C14.8,20.7,15.1,21.3,14.9,21.8z
	 M21.8,19c-0.1,0.4-0.5,0.6-1,0.6H3.2c-0.4,0-0.7-0.2-0.9-0.6c-0.2-0.3-0.1-0.8,0.1-1.1c0,0,1.3-1.8,1.3-7.5c0-4.3,3.2-7.8,7.3-8.3
	V1c0-0.6,0.4-1,1-1s1,0.4,1,1v1.3c4.1,0.5,7.3,4,7.3,8.3c0,6,1.1,7.3,1.2,7.3C21.8,18.1,21.9,18.6,21.8,19z M19.2,17.6
	c-0.4-1.3-0.8-3.5-0.8-7.1c0-3.5-2.8-6.3-6.3-6.3S5.7,7,5.7,10.5c0,3.5-0.5,5.8-0.9,7.1H19.2z"/>
</svg>
