<?xml version="1.0" encoding="utf-8"?>
<!-- Generator: Adobe Illustrator 24.3.0, SVG Export Plug-In . SVG Version: 6.00 Build 0)  -->
<svg version="1.1" id="Layer_1" xmlns="http://www.w3.org/2000/svg" xmlns:xlink="http://www.w3.org/1999/xlink" x="0px" y="0px"
	 viewBox="0 0 24 24" style="enable-background:new 0 0 24 24;color:#43C2F4" xml:space="preserve">
<path d="M21,4.4H0V3c0-1.7,1.3-3,3-3h15c1.7,0,3,1.3,3,3V4.4z M22,22c-1.3,1.3-3.1,2-4.9,2c-1.8,0-3.5-0.7-4.9-2c-1.3-1.3-2-3-2-4.9
	c0-1.8,0.7-3.6,2-4.9c1.3-1.4,3.1-2,4.8-2s3.5,0.7,4.9,2C24.7,15,24.7,19.3,22,22z M18.3,16.5l-1.7-0.7c0-0.1,0.1-0.1,0.1-0.1h1.6
	c0.6,0,1-0.4,1-1c0-0.6-0.4-1-1-1h-0.2v-0.3c0-0.6-0.4-1-1-1c-0.6,0-1,0.4-1,1v0.4c-0.9,0.3-1.5,1.1-1.5,2c0,0.8,0.5,1.6,1.3,1.9
	l1.7,0.7c0.1,0,0.1,0,0,0.1H16c-0.6,0-1,0.4-1,1s0.4,1,1,1h0.2v0.3c0,0.6,0.4,1,1,1c0.6,0,1-0.4,1-1v-0.4c0.6-0.2,1.1-0.6,1.3-1.2
	C19.9,18.2,19.4,17,18.3,16.5z M8.2,17H3c-1.7,0-3-1.3-3-3V6.4h21v2.7c-1.2-0.6-2.6-0.9-4-0.9c-2.4,0-4.6,0.9-6.3,2.6
	C9.2,12.4,8.2,14.7,8.2,17z M2.9,9.1c0,0.6,0.4,1,1,1h5.9c0.6,0,1-0.4,1-1c0-0.6-0.4-1-1-1H3.9C3.3,8.1,2.9,8.5,2.9,9.1z M7.9,12
	c0-0.6-0.4-1-1-1h-3c-0.6,0-1,0.4-1,1c0,0.6,0.4,1,1,1h3C7.5,13,7.9,12.6,7.9,12z"/>
</svg>
