<?xml version="1.0" encoding="utf-8"?>
<!-- Generator: Adobe Illustrator 24.3.0, SVG Export Plug-In . SVG Version: 6.00 Build 0)  -->
<svg version="1.1" id="Layer_1" xmlns="http://www.w3.org/2000/svg" xmlns:xlink="http://www.w3.org/1999/xlink" x="0px" y="0px"
	 viewBox="0 0 24 24" style="enable-background:new 0 0 24 24;color:#024A83" xml:space="preserve">
<path d="M19.5,19.2c-0.2,0.6-0.7,1-1.3,1.2v0.4c0,0.6-0.4,1-1,1s-1-0.4-1-1v-0.3H16c-0.6,0-1-0.4-1-1s0.4-1,1-1h1.6
	c0.1-0.1,0.1-0.1,0-0.1l-1.7-0.7c-0.8-0.3-1.3-1.1-1.3-1.9c0-0.9,0.6-1.7,1.5-2v-0.4c0-0.6,0.4-1,1-1s1,0.4,1,1v0.3h0.2
	c0.6,0,1,0.4,1,1s-0.4,1-1,1h-1.6c0,0-0.1,0-0.1,0.1l1.7,0.7C19.4,17,19.9,18.2,19.5,19.2z M22,22c-1.3,1.3-3.1,2-4.9,2
	s-3.5-0.7-4.9-2c-1.3-1.3-2-3-2-4.9c0-1.8,0.7-3.6,2-4.9c2.7-2.7,7-2.7,9.7,0C24.7,15,24.7,19.3,22,22z M20.6,13.7
	c-0.9-0.9-2.2-1.4-3.4-1.4c-1.2,0-2.5,0.5-3.4,1.4s-1.4,2.1-1.4,3.4s0.5,2.5,1.4,3.4c1.9,1.9,5,1.9,6.9,0
	C22.5,18.7,22.5,15.6,20.6,13.7z M8.3,15.7c0,0.6-0.4,1-1,1H2.5c-1.4,0-2.5-1.1-2.5-2.5V2.5C0,1.1,1.1,0,2.5,0h16.1
	c1.4,0,2.5,1.1,2.5,2.5v4.9c0,0.6-0.4,1-1,1s-1-0.4-1-1v-1H2v7.8c0,0.3,0.2,0.5,0.5,0.5h4.9C7.9,14.7,8.3,15.1,8.3,15.7z M2,2.5v1.9
	h17.1V2.5c0-0.3-0.2-0.5-0.5-0.5H2.5C2.2,2,2,2.2,2,2.5z M10.8,9.1c0-0.6-0.4-1-1-1H3.9c-0.6,0-1,0.4-1,1s0.4,1,1,1h5.9
	C10.4,10.1,10.8,9.6,10.8,9.1z M6.9,13c0.6,0,1-0.4,1-1s-0.4-1-1-1h-3c-0.6,0-1,0.4-1,1s0.4,1,1,1H6.9z"/>
</svg>
