<?xml version="1.0" encoding="utf-8"?>
<!-- Generator: Adobe Illustrator 24.3.0, SVG Export Plug-In . SVG Version: 6.00 Build 0)  -->
<svg version="1.1" id="Layer_1" xmlns="http://www.w3.org/2000/svg" xmlns:xlink="http://www.w3.org/1999/xlink" x="0px" y="0px"
	 viewBox="0 0 24 24" style="enable-background:new 0 0 24 24;color:#024A83" xml:space="preserve">
<path d="M8.6,23c-0.7,0-1.3-0.2-1.8-0.7c-0.6-0.6-0.9-1.3-0.9-2.2l0.1-1.3c0-0.2-0.1-0.4-0.2-0.5c-0.1-0.1-0.3-0.2-0.5-0.2l-1.3,0.1
	c-1.5,0.1-2.8-1.1-2.9-2.6c0-0.8,0.3-1.6,0.9-2.2l0.9-0.8C3,12.4,3.1,12.2,3.1,12c0-0.2-0.1-0.4-0.2-0.5l-1-0.9
	C1.4,10.1,1,9.5,1,8.7c0-0.7,0.2-1.4,0.7-2c0.6-0.6,1.3-0.9,2.2-0.9l1.2,0.1c0.2,0,0.4-0.1,0.5-0.2c0.1-0.1,0.2-0.3,0.2-0.5L5.8,3.9
	c0-0.7,0.2-1.4,0.7-2C7,1.4,7.7,1,8.5,1c0.8,0,1.6,0.3,2.2,0.9l0.8,0.9c0,0,0,0,0,0C11.6,3,11.8,3.1,12,3.1c0.2,0,0.4-0.1,0.5-0.2
	l0.9-1C13.9,1.4,14.6,1,15.3,1c0.7,0,1.4,0.2,2,0.7c0.6,0.6,0.9,1.3,0.9,2.2l-0.1,1.2c0,0.2,0.1,0.4,0.2,0.5
	c0.1,0.1,0.3,0.2,0.5,0.2l1.3-0.1c1.5-0.1,2.8,1.1,2.9,2.6c0,0.8-0.3,1.6-0.9,2.2l-0.9,0.8c-0.1,0.1-0.2,0.3-0.2,0.5
	c0,0.2,0.1,0.4,0.2,0.5l1,0.9c1.1,1,1.2,2.8,0.2,3.9c-0.6,0.6-1.4,0.9-2.2,0.9l-1.2-0.1c-0.2,0-0.4,0.1-0.5,0.2
	c-0.1,0.1-0.2,0.3-0.2,0.5l0.1,1.3c0,0.7-0.2,1.4-0.7,2c-0.5,0.5-1.2,0.9-1.9,0.9c-0.8,0-1.6-0.3-2.1-0.9l-0.8-0.9
	c-0.1-0.1-0.3-0.2-0.5-0.2c-0.2,0-0.4,0.1-0.5,0.2l-0.9,1C10.1,22.7,9.3,23,8.6,23z M5.2,16.1c0,0,0.1,0,0.1,0
	c0.7,0,1.4,0.4,1.9,0.9c0.5,0.5,0.7,1.2,0.7,2l-0.1,1.2c0,0.2,0.1,0.4,0.2,0.6c0.3,0.3,0.8,0.3,1,0l0.8-0.9c0.1-0.1,0.1-0.1,0.2-0.2
	c0.5-0.5,1.2-0.7,2-0.7c0.7,0,1.4,0.4,1.9,0.9l0.8,0.9c0.1,0.2,0.4,0.2,0.6,0.2c0.2,0,0.4-0.1,0.5-0.2c0.1-0.1,0.2-0.3,0.2-0.5
	L16.1,19c0-0.1,0-0.2,0-0.3c0-0.7,0.4-1.4,0.9-1.9c0.5-0.5,1.2-0.7,2-0.7l1.2,0.1c0.2,0,0.4-0.1,0.6-0.2c0.3-0.3,0.3-0.8-0.1-1
	L19.8,14c-0.1-0.1-0.1-0.1-0.2-0.2c-0.5-0.5-0.7-1.2-0.7-2c0-0.7,0.4-1.4,0.9-1.9l0.9-0.8C20.9,9,21,8.8,21,8.5
	c0-0.4-0.4-0.7-0.8-0.7L19,7.9c-0.1,0-0.2,0-0.3,0c-0.7,0-1.4-0.4-1.9-0.9c-0.5-0.5-0.7-1.2-0.7-2l0.1-1.2c0-0.2-0.1-0.4-0.2-0.6
	C15.8,3.1,15.6,3,15.4,3c-0.2,0-0.4,0.1-0.5,0.2L14,4.2c-0.1,0.1-0.1,0.1-0.2,0.2c-0.5,0.5-1.2,0.7-2,0.7c-0.7,0-1.4-0.4-1.9-0.9
	L9.1,3.3C9,3.1,8.8,3,8.5,3C8.3,3,8.2,3.1,8,3.3C7.9,3.4,7.8,3.6,7.8,3.8L7.9,5c0,0.1,0,0.2,0,0.3C7.9,6,7.5,6.7,7,7.2
	C6.5,7.7,5.7,7.9,5,7.9L3.8,7.8c-0.2,0-0.4,0.1-0.6,0.2C3.1,8.2,3,8.4,3,8.6S3.1,9,3.2,9.1L4.2,10c0.1,0.1,0.1,0.1,0.2,0.2
	c0.5,0.5,0.7,1.2,0.7,2c0,0.7-0.4,1.4-0.9,1.9l-0.9,0.8C3.1,15,3,15.2,3,15.5c0,0.4,0.4,0.7,0.8,0.7L5,16.1
	C5.1,16.1,5.1,16.1,5.2,16.1z M12,17C12,17,12,17,12,17c-1.3,0-2.6-0.5-3.5-1.5c-1.9-1.9-1.9-5.1,0-7.1C9.4,7.5,10.7,7,12,7
	c0,0,0,0,0,0c1.3,0,2.6,0.5,3.5,1.4c0,0,0,0,0,0c0,0,0,0,0,0C16.5,9.4,17,10.7,17,12c0,1.3-0.5,2.6-1.5,3.5C14.6,16.5,13.3,17,12,17
	z M12,9c-0.8,0-1.5,0.3-2.1,0.9c-1.2,1.2-1.2,3.1,0,4.2c0.6,0.6,1.3,0.9,2.1,0.9c0,0,0,0,0,0c0.8,0,1.6-0.3,2.1-0.9
	c0.6-0.6,0.9-1.3,0.9-2.1c0-0.8-0.3-1.5-0.9-2.1c0,0,0,0,0,0C13.5,9.3,12.8,9,12,9z"/>
</svg>
