<?xml version="1.0" encoding="utf-8"?>
<!-- Generator: Adobe Illustrator 24.3.0, SVG Export Plug-In . SVG Version: 6.00 Build 0)  -->
<svg version="1.1" id="Layer_1" xmlns="http://www.w3.org/2000/svg" xmlns:xlink="http://www.w3.org/1999/xlink" x="0px" y="0px"
	 viewBox="0 0 24 24" style="enable-background:new 0 0 24 24;color:#43C2F4" xml:space="preserve">
<path d="M15.5,15.5c-0.9,1-2.2,1.5-3.5,1.5s-2.6-0.5-3.5-1.5c-1.9-1.9-1.9-5.1,0-7.1C9.4,7.5,10.7,7,12,7s2.6,0.5,3.5,1.4
	c1,1,1.5,2.3,1.5,3.6S16.5,14.6,15.5,15.5z M22.2,13.2l-1-0.9C21.1,12.2,21,12,21,11.8s0.1-0.4,0.2-0.5l0.9-0.8
	C22.7,9.9,23,9.1,23,8.3c-0.1-1.5-1.4-2.7-2.9-2.6l-1.3,0.1c-0.2,0-0.4-0.1-0.5-0.2c-0.1-0.1-0.2-0.3-0.2-0.5l0.1-1.2
	c0-0.9-0.3-1.6-0.9-2.2C16.7,1.2,16,1,15.3,1s-1.4,0.4-1.9,0.9l-0.9,1C12.4,3,12.2,3.1,12,3.1S11.6,3,11.5,2.8l-0.8-0.9
	C10.1,1.3,9.3,1,8.5,1S7,1.4,6.5,1.9C6,2.5,5.8,3.2,5.8,3.9v1.3c0,0.2-0.1,0.4-0.2,0.5C5.5,5.8,5.3,5.9,5.1,5.9L3.9,5.8
	C3,5.8,2.3,6.1,1.7,6.7C1.2,7.3,1,8,1,8.7c0,0.8,0.4,1.4,0.9,1.9l1,0.9C3,11.6,3.1,11.8,3.1,12S3,12.4,2.9,12.6L2,13.4
	c-0.6,0.6-0.9,1.4-0.9,2.2c0.1,1.5,1.4,2.7,2.9,2.6l1.3-0.1c0.2,0,0.4,0.1,0.5,0.2C5.9,18.4,6,18.6,6,18.8l-0.1,1.3
	c0,0.9,0.3,1.6,0.9,2.2C7.3,22.8,7.9,23,8.6,23c0.7,0,1.5-0.3,2.4-1l0.9-1c0.1-0.1,0.3-0.2,0.5-0.2c0.2,0,0.4,0.1,0.5,0.2l0.8,0.9
	c0.5,0.6,1.3,0.9,2.1,0.9c0.7,0,1.4-0.4,1.9-0.9c0.5-0.6,0.7-1.3,0.7-2l-0.1-1.3c0-0.2,0.1-0.4,0.2-0.5c0.1-0.1,0.3-0.2,0.5-0.2
	l1.2,0.1c0.8,0,1.6-0.3,2.2-0.9C23.4,16,23.3,14.2,22.2,13.2z M14.1,14.1C13.6,14.7,12.8,15,12,15s-1.5-0.3-2.1-0.9
	c-1.2-1.1-1.2-3,0-4.2C10.5,9.3,11.2,9,12,9s1.5,0.3,2.1,0.9c0.6,0.6,0.9,1.3,0.9,2.1S14.7,13.5,14.1,14.1z"/>
</svg>
